<mxfile host="app.diagrams.net" modified="2021-06-27T09:24:47.388Z" agent="5.0 (Windows NT 10.0; Win64; x64) AppleWebKit/537.36 (KHTML, like Gecko) Chrome/86.0.4240.272 Whale/2.9.118.16 Safari/537.36" etag="3nlXj7dnClfOaYt3JnbH" version="14.8.1" type="github">
  <diagram id="qyTC9RJToAtXXp_AVU-E" name="Page-1">
    <mxGraphModel dx="1372" dy="760" grid="1" gridSize="10" guides="1" tooltips="1" connect="1" arrows="1" fold="1" page="1" pageScale="1" pageWidth="1169" pageHeight="827" math="0" shadow="0">
      <root>
        <mxCell id="0" />
        <mxCell id="1" parent="0" />
        <mxCell id="_r_4Eiqm54N-Ta7e65Ye-5" style="edgeStyle=orthogonalEdgeStyle;rounded=0;orthogonalLoop=1;jettySize=auto;html=1;exitX=1;exitY=0.5;exitDx=0;exitDy=0;entryX=0;entryY=0.5;entryDx=0;entryDy=0;" edge="1" parent="1" source="_r_4Eiqm54N-Ta7e65Ye-1" target="_r_4Eiqm54N-Ta7e65Ye-2">
          <mxGeometry relative="1" as="geometry" />
        </mxCell>
        <mxCell id="_r_4Eiqm54N-Ta7e65Ye-1" value="Node init" style="rounded=1;whiteSpace=wrap;html=1;" vertex="1" parent="1">
          <mxGeometry x="150" y="270" width="120" height="40" as="geometry" />
        </mxCell>
        <mxCell id="_r_4Eiqm54N-Ta7e65Ye-6" style="edgeStyle=orthogonalEdgeStyle;rounded=0;orthogonalLoop=1;jettySize=auto;html=1;exitX=1;exitY=0.5;exitDx=0;exitDy=0;" edge="1" parent="1" source="_r_4Eiqm54N-Ta7e65Ye-2" target="_r_4Eiqm54N-Ta7e65Ye-3">
          <mxGeometry relative="1" as="geometry" />
        </mxCell>
        <mxCell id="_r_4Eiqm54N-Ta7e65Ye-2" value="callback 함수 호출" style="rounded=1;whiteSpace=wrap;html=1;arcSize=0;" vertex="1" parent="1">
          <mxGeometry x="330" y="270" width="120" height="40" as="geometry" />
        </mxCell>
        <mxCell id="_r_4Eiqm54N-Ta7e65Ye-9" style="edgeStyle=orthogonalEdgeStyle;rounded=0;orthogonalLoop=1;jettySize=auto;html=1;exitX=1;exitY=0.5;exitDx=0;exitDy=0;entryX=0;entryY=0.5;entryDx=0;entryDy=0;" edge="1" parent="1" source="_r_4Eiqm54N-Ta7e65Ye-3" target="_r_4Eiqm54N-Ta7e65Ye-4">
          <mxGeometry relative="1" as="geometry" />
        </mxCell>
        <mxCell id="_r_4Eiqm54N-Ta7e65Ye-3" value="percentage, voltage 출력" style="rounded=1;whiteSpace=wrap;html=1;arcSize=0;" vertex="1" parent="1">
          <mxGeometry x="510" y="270" width="120" height="40" as="geometry" />
        </mxCell>
        <mxCell id="_r_4Eiqm54N-Ta7e65Ye-4" value="Node 종료" style="rounded=1;whiteSpace=wrap;html=1;" vertex="1" parent="1">
          <mxGeometry x="690" y="270" width="120" height="40" as="geometry" />
        </mxCell>
        <mxCell id="_r_4Eiqm54N-Ta7e65Ye-8" style="edgeStyle=orthogonalEdgeStyle;rounded=0;orthogonalLoop=1;jettySize=auto;html=1;exitX=0.5;exitY=1;exitDx=0;exitDy=0;entryX=0.5;entryY=0;entryDx=0;entryDy=0;" edge="1" parent="1" source="_r_4Eiqm54N-Ta7e65Ye-7" target="_r_4Eiqm54N-Ta7e65Ye-2">
          <mxGeometry relative="1" as="geometry">
            <Array as="points">
              <mxPoint x="570" y="230" />
              <mxPoint x="390" y="230" />
            </Array>
          </mxGeometry>
        </mxCell>
        <mxCell id="_r_4Eiqm54N-Ta7e65Ye-7" value="sensor_msgs:msg::BatteryState" style="text;html=1;strokeColor=none;fillColor=none;align=center;verticalAlign=middle;whiteSpace=wrap;rounded=0;" vertex="1" parent="1">
          <mxGeometry x="550" y="250" width="40" height="20" as="geometry" />
        </mxCell>
      </root>
    </mxGraphModel>
  </diagram>
</mxfile>
